<?xml version="1.0" standalone="no"?>
<!DOCTYPE svg PUBLIC "-//W3C//DTD SVG 20010904//EN"
 "http://www.w3.org/TR/2001/REC-SVG-20010904/DTD/svg10.dtd">
<svg version="1.0" xmlns="http://www.w3.org/2000/svg"
 width="1280.000000pt" height="1135.000000pt" viewBox="0 0 1280.000000 1135.000000"
 preserveAspectRatio="xMidYMid meet">
<metadata>
Created by potrace 1.15, written by Peter Selinger 2001-2017
</metadata>
<g transform="translate(0.000000,1135.000000) scale(0.100000,-0.100000)"
fill="#000000" stroke="none">
<path d="M2982 11280 c-207 -127 -418 -310 -1524 -1328 l-428 -393 0 -115 c0
-146 22 -259 96 -486 153 -469 370 -967 743 -1703 418 -825 802 -1507 1030
-1833 109 -156 195 -314 235 -434 28 -85 96 -348 96 -373 0 -9 -67 -116 -149
-238 -290 -432 -392 -572 -720 -982 -322 -402 -431 -553 -701 -975 -293 -457
-421 -640 -715 -1020 -77 -100 -189 -250 -248 -333 -179 -251 -548 -812 -660
-1004 l-36 -63 124 0 c192 0 352 43 703 189 488 203 848 396 1116 599 63 48
184 140 269 204 85 64 233 171 328 238 371 258 421 294 555 402 298 238 601
505 1333 1176 l384 352 136 0 c87 0 157 -5 192 -14 123 -32 291 -120 534 -278
282 -183 509 -315 753 -437 309 -155 671 -281 1347 -466 744 -204 1347 -324
1910 -381 217 -22 692 -25 845 -5 400 51 703 184 1875 819 198 107 366 200
373 207 10 9 -189 62 -940 250 -1231 307 -1655 423 -2201 601 -696 228 -1302
496 -1826 807 -282 166 -412 263 -790 582 l-213 180 5 145 c5 162 16 209 78
334 76 152 197 308 768 986 210 250 490 592 620 760 131 168 325 411 431 540
276 338 394 522 486 762 31 81 168 587 161 595 -4 4 -912 166 -1137 203 -418
69 -684 94 -922 88 -147 -4 -201 -11 -363 -43 l-190 -37 -84 -87 c-100 -103
-179 -201 -547 -681 -154 -201 -418 -540 -587 -753 -169 -214 -335 -424 -370
-467 l-62 -79 -73 0 c-86 -1 -110 9 -173 76 -209 219 -682 1050 -932 1638
-191 450 -298 769 -477 1430 -104 383 -211 727 -251 805 -9 19 -35 52 -56 72
l-38 37 -113 -69z"/>
</g>
</svg>
