<svg id="border-twenty-four" data-name="Layer 1" xmlns="http://www.w3.org/2000/svg" width="300" height="320" viewBox="25 0 300 300">
  <g>
    <path d="M150.58,233.88a5.61,5.61,0,0,1-3.39-1.14l-18.13-11.4a2.27,2.27,0,0,0-1.37-.47H49.1a9.27,9.27,0,0,1-9.26-9.26V10A9.26,9.26,0,0,1,49.1.71H250.75A9.26,9.26,0,0,1,260,10V211.61a9.26,9.26,0,0,1-9.25,9.26H172.5a2.23,2.23,0,0,0-1.42.51l-.15.11L154.1,232.65A5.61,5.61,0,0,1,150.58,233.88Zm-19.5-15.26L149.22,230a2.21,2.21,0,0,0,2.78,0l.15-.12L169,218.71a5.64,5.64,0,0,1,3.52-1.24h78.25a5.87,5.87,0,0,0,5.86-5.86V10a5.87,5.87,0,0,0-5.86-5.86H49.1A5.87,5.87,0,0,0,43.24,10V211.61a5.87,5.87,0,0,0,5.86,5.86h78.59A5.62,5.62,0,0,1,131.08,218.62Z"/>
    <g>
      <path d="M250.58,234.21h-75.8a4.32,4.32,0,0,0-2.75,1l-18.62,12.63a4.29,4.29,0,0,1-5.42.08L128.1,235.14a4.28,4.28,0,0,0-2.66-.93H49.49a9.65,9.65,0,0,0-9.57,9.49v45.06a9.65,9.65,0,0,0,9.81,9.5h200.7a9.59,9.59,0,0,0,9.73-9.5V243.7A9.64,9.64,0,0,0,250.58,234.21ZM75.19,283a22,22,0,0,1-7.8-1.74l-.89-3.77.11-.07a18.39,18.39,0,0,0,8.4,2.33c4.1,0,6.77-1.52,6.77-4,0-1.85-1.37-2.85-3.22-3.51l-7.06-2.07a6.65,6.65,0,0,1-4.77-6.59c0-4.84,4-7.39,9.39-7.39a16.81,16.81,0,0,1,7.69,1.7v3.62a13.52,13.52,0,0,0-7.58-2.07c-4.47,0-5.92,1.85-5.92,4.22,0,1,.23,2.7,2.92,3.66l7.07,2.11c3.07,1,5.06,3,5.06,6.21C85.36,280.56,80.93,283,75.19,283Zm27.41-3.25a15.28,15.28,0,0,0,9-3h.25v3.59a17.12,17.12,0,0,1-9.5,2.66A13.15,13.15,0,0,1,89,269.73c0-8.1,6.18-13.5,13.72-13.5a15.72,15.72,0,0,1,9.39,3L110.77,262l-.26,0a12.65,12.65,0,0,0-7.8-2.59,10.14,10.14,0,0,0-.11,20.27Zm34.21,2.81L134,276.75H120.17l-2.81,5.81h-3.63l12.58-25.89h1.51l12.61,25.89Zm28.92,0h-1.52l-16.34-18.49v18.49h-3.52V256.67h1.56l16.31,18.57V256.67h3.51Zm45,0h-3.51V264.77l-10,13.28h-1l-10-13.28v17.79h-3.51V256.67h1.85l12.13,16.42,12.13-16.42h1.85ZM233,259.93H221.73v8.32h10.72v3.21H221.73v7.84H233v3.26H218.21V256.67H233Z"/>
      <polygon points="121.72 273.54 132.44 273.54 127.08 262.48 121.72 273.54"/>
    </g>
  </g>
</svg>
