<svg id="border-two" data-name="Layer 1" xmlns="http://www.w3.org/2000/svg" width="300" height="300" viewBox="0 0 300 300">
  <g>
    <path d="M129.21,260.52c-.32,1.27-.65,2.42-1,3.46l-2.62,7h7.32l-2.6-7Z"/>
    <path d="M243,1.7h-186a10.25,10.25,0,0,0-10.2,10.12v186A10.13,10.13,0,0,0,57,208H243a10.13,10.13,0,0,0,10.12-10.12v-186A10.13,10.13,0,0,0,243,1.7Zm2.36,193.05a5.46,5.46,0,0,1-5.47,5.47H60.16a5.46,5.46,0,0,1-5.47-5.47V14.93a5.46,5.46,0,0,1,5.47-5.47H239.91a5.46,5.46,0,0,1,5.47,5.47Z"/>
    <path d="M243.54,238.81H173.61a2.29,2.29,0,0,1-1.62-.67l-20.55-20.55a2.33,2.33,0,0,0-3.25,0l-20.55,20.55a2.29,2.29,0,0,1-1.62.67H56.09A9.15,9.15,0,0,0,46.93,248v41.17a9.16,9.16,0,0,0,9.16,9.16H243.61a9.09,9.09,0,0,0,9.09-9.16V248A9.16,9.16,0,0,0,243.54,238.81ZM94.78,279.29A9.47,9.47,0,0,1,88.71,281a14.86,14.86,0,0,1-6.35-1.09v-2.78a16.63,16.63,0,0,0,3.22,1,15.52,15.52,0,0,0,3.26.37,6.33,6.33,0,0,0,3.9-1,3.22,3.22,0,0,0,1.31-2.73,3.45,3.45,0,0,0-.47-1.9A4.55,4.55,0,0,0,92,271.5,22.27,22.27,0,0,0,88.62,270,11,11,0,0,1,84,267.28a6,6,0,0,1-1.38-4.1,5.18,5.18,0,0,1,2-4.3,8.39,8.39,0,0,1,5.35-1.6,15.37,15.37,0,0,1,6.37,1.3l-.9,2.49A14.55,14.55,0,0,0,90,259.84a5.22,5.22,0,0,0-3.22.89,2.94,2.94,0,0,0-1.16,2.48,3.62,3.62,0,0,0,.45,1.89,4.21,4.21,0,0,0,1.46,1.36,18.88,18.88,0,0,0,3.15,1.41,17.27,17.27,0,0,1,3.84,1.84,5.79,5.79,0,0,1,1.86,2.05,6,6,0,0,1,.6,2.78A5.76,5.76,0,0,1,94.78,279.29Zm10.81-3.23a7.31,7.31,0,0,0,5.89,2.43,19.8,19.8,0,0,0,5.55-.92v2.53a14.07,14.07,0,0,1-2.83.73,22.25,22.25,0,0,1-3.13.2q-5.1,0-7.86-3.11t-2.76-8.79a14,14,0,0,1,1.32-6.25,9.45,9.45,0,0,1,3.84-4.14,11.66,11.66,0,0,1,5.93-1.46,14.19,14.19,0,0,1,6.39,1.36l-1.17,2.47a12.52,12.52,0,0,0-5.25-1.27,7.29,7.29,0,0,0-5.86,2.5,10.16,10.16,0,0,0-2.13,6.82Q103.52,273.63,105.59,276.06Zm31,4.65-2.79-7.15h-9.16l-2.75,7.15h-2.94l9-23.19h2.63l9,23.19Zm24.5,0h-3.4l-12.37-19.18h-.12l.08,1.28c.12,1.92.18,3.58.18,5v12.9h-2.68v-23.1h3.36l.71,1.13,7.59,11.72,4,6.27h.12c0-.25-.06-1.15-.12-2.71s-.1-2.68-.1-3.37v-13h2.72Zm37.75,0h-2.88v-14.2q0-2.37.22-6H196l-7.71,20.22h-2.38l-7.62-20.25h-.12c.16,1.68.23,3.76.23,6.24v14h-2.68v-23.1H180l7.12,18.93h.13l7.25-18.93h4.27ZM218,260.17H208v7.21h9.42v2.53H208v8.24h10v2.56H205.09v-23.1H218Z"/>
  </g>
</svg>
