<svg id="Layer_8" data-name="Layer 1" xmlns="http://www.w3.org/2000/svg" width="300" height="320" viewBox="25 20 300 300">
  <g>
    <path id="Outline" d="M57.6,251.64H56.27V37.3H57.6Zm185.47,0h1.34V37.3h-1.34Z"/>
    <path d="M220.31,1.06H80.36a24.08,24.08,0,0,0-24.09,24.1V39.41H244.41V25.16A24.09,24.09,0,0,0,220.31,1.06Zm-51.94,21.1H132.3a2,2,0,0,1,0-4h36.07a2,2,0,0,1,0,4Z"/>
    <g>
      <path d="M203.45,264a6.05,6.05,0,0,0-6.06,5.75h12C209.3,267.88,207.7,264,203.45,264Z"/>
      <path d="M124.66,273.74c0,2.55,2.3,3.65,4.4,3.65,3.54,0,5.49-3.26,5.49-3.26v-2.74a9.52,9.52,0,0,0-5.14-1.34C127.28,270.05,124.66,271.18,124.66,273.74Z"/>
    </g>
    <path d="M164.93,241.1l-14.32-12.52L135.9,241.1H56.27v33.3a24.07,24.07,0,0,0,24.09,24.09h140a24.08,24.08,0,0,0,24.1-24.09V241.1ZM96.4,279.2a8.28,8.28,0,0,1-6.92-3.44l1.46-1.24a6.37,6.37,0,0,0,5.46,2.87c1.77,0,4.22-.71,4.22-2.84,0-1.84-2-2.41-4.5-3-3.55-.78-5.75-2.13-5.75-4.82,0-2.31,2.16-4.58,5.71-4.58a7.94,7.94,0,0,1,5.78,2.27l-1.2,1.35A6.55,6.55,0,0,0,96.08,264c-2.2,0-3.83,1.1-3.83,2.77,0,2,2.13,2.55,4.86,3.16,3,.67,5.42,1.73,5.42,4.64C102.53,277.64,99.45,279.2,96.4,279.2Zm17.23,0a8.52,8.52,0,0,1,0-17,8.39,8.39,0,0,1,6.46,3.05l-1.32,1.17a6.56,6.56,0,0,0-5.14-2.41,6.71,6.71,0,0,0,0,13.41,6.68,6.68,0,0,0,5.36-2.7l1.27,1.21A8.34,8.34,0,0,1,113.63,279.2Zm22.77-.43h-1.67V276a7.77,7.77,0,0,1-6.1,3.23c-2.73,0-5.88-1.88-5.88-5.46s3.26-5.47,6.41-5.47a9.76,9.76,0,0,1,5.39,1.53v-1.21c0-3.93-3-4.61-4.75-4.61a10.89,10.89,0,0,0-5.28,1.49l-.82-1.59a12.39,12.39,0,0,1,6.07-1.71c4.5,0,6.63,2.7,6.63,6Zm18.37,0h-1.85v-10c0-3.33-1.95-4.75-4.57-4.75-3.58,0-5,3.62-5,3.62v11.17H141.5V262.6h1.67v2.94a6.24,6.24,0,0,1,5.53-3.37c3,0,6.07,1.88,6.07,6.28Zm36.87,0H189.8V268.7c0-3.3-1.49-4.72-3.94-4.72-3.05,0-4.29,3.12-4.29,3.12v11.67h-1.84V268.7c0-3.3-1.49-4.72-3.94-4.72-3,0-4.43,3.12-4.43,3.12v11.67h-1.84V262.6h1.66v2.73a5.69,5.69,0,0,1,5-3.16,5,5,0,0,1,4.89,3.16,5.88,5.88,0,0,1,5.18-3.16c2.48,0,5.35,1.42,5.35,6Zm19.61-7.34H197.31a6.4,6.4,0,0,0,6.46,6,7.2,7.2,0,0,0,5.53-2.77l1.24,1.28a9.11,9.11,0,0,1-6.77,3.3,8.32,8.32,0,0,1-8.3-8.52c0-4.57,3.16-8.51,8-8.51,4.29,0,7.84,3.55,7.84,8.51A5.17,5.17,0,0,1,211.25,271.43Z"/>
  </g>
</svg>
