<svg id="border-sixteen" data-name="Layer 1" xmlns="http://www.w3.org/2000/svg" width="300" height="300" viewBox="25 0 300 300">
  <g>
    <path d="M64.6,264.36h1.3a.84.84,0,0,1,.84.84v16.37H71.8v-8.92a.83.83,0,0,1,.84-.84H86.11a.84.84,0,0,1,.84.84v8.92H92V265.2a.87.87,0,0,1,.24-.59.83.83,0,0,1,.59-.25h1.31L79.39,251.48Z"/>
    <g>
      <path d="M149.7,275.68c0,2.63,2.37,3.76,4.53,3.76,3.65,0,5.66-3.36,5.66-3.36v-2.81a9.78,9.78,0,0,0-5.3-1.39C152.4,271.88,149.7,273.05,149.7,275.68Z"/>
      <path d="M232.36,265.64a6.24,6.24,0,0,0-6.25,5.91h12.35C238.38,269.65,236.74,265.64,232.36,265.64Z"/>
      <path d="M249.18,236.46H50.82a9.7,9.7,0,0,0-9.7,9.7v43.56a9.7,9.7,0,0,0,9.7,9.7H249.26a9.63,9.63,0,0,0,9.62-9.7V246.16A9.7,9.7,0,0,0,249.18,236.46Zm-152,29a.85.85,0,0,1-.78.54H93.68v16.37a.84.84,0,0,1-.84.84H86.11a.85.85,0,0,1-.84-.84v-8.93H73.47v8.93a.84.84,0,0,1-.83.84H65.9a.85.85,0,0,1-.84-.84V266H62.37a.83.83,0,0,1-.55-1.47l17-14.82a.85.85,0,0,1,1.1,0l17,14.83A.85.85,0,0,1,97.17,265.5Zm21.61,15.8c-5.62,0-7.93-5.22-7.93-5.22l1.72-1s1.68,4.38,6.21,4.38c3.17,0,5.73-1.9,5.73-5s-2.77-4.45-5.77-5.77c-3.76-1.64-6.86-3.61-6.86-7.48,0-2.89,2.33-6.36,7.12-6.36a8.7,8.7,0,0,1,6.93,3.69l-1.46,1.13a6.73,6.73,0,0,0-5.44-2.95c-3.21,0-5.25,1.93-5.25,4.49,0,3.14,2.88,4.53,6.53,6.13,3.91,1.72,6.1,3.69,6.1,7.12C126.41,278.6,123.05,281.3,118.78,281.3Zm19.57,0A8.77,8.77,0,1,1,145,266.91l-1.35,1.21a6.77,6.77,0,0,0-5.29-2.48,6.91,6.91,0,0,0,0,13.8,6.86,6.86,0,0,0,5.51-2.78l1.31,1.24A8.59,8.59,0,0,1,138.35,281.3Zm23.44-.44h-1.72V278a8,8,0,0,1-6.28,3.32c-2.81,0-6.06-1.94-6.06-5.62s3.36-5.63,6.61-5.63a10.1,10.1,0,0,1,5.55,1.57v-1.24c0-4.05-3.07-4.74-4.89-4.74a11.24,11.24,0,0,0-5.44,1.53l-.84-1.64a12.7,12.7,0,0,1,6.24-1.76c4.64,0,6.83,2.78,6.83,6.17Zm18.91,0h-1.9V270.53c0-3.43-2-4.89-4.71-4.89-3.69,0-5.15,3.72-5.15,3.72v11.5H167V264.21h1.72v3a6.43,6.43,0,0,1,5.69-3.47c3.11,0,6.25,1.94,6.25,6.47Zm38.92,0h-1.9v-21.8L208,274.47l-9.71-15.37v21.76h-1.86V255.3h1.79L208,271l9.79-15.7h1.79Zm20.77-7.56H226a6.58,6.58,0,0,0,6.65,6.14,7.41,7.41,0,0,0,5.69-2.85l1.28,1.31a9.37,9.37,0,0,1-7,3.4,8.56,8.56,0,0,1-8.55-8.76c0-4.71,3.25-8.77,8.22-8.77,4.42,0,8.07,3.65,8.07,8.77A5.37,5.37,0,0,1,240.39,273.3Z"/>
    </g>
  </g>
</svg>
