<svg id="border-thirteen" data-name="Layer 1" xmlns="http://www.w3.org/2000/svg" width="300" height="300" viewBox="0 0 300 300">
  <g>
    <path d="M195.11,290.77l-7.28,4.88a2.16,2.16,0,0,0-.57,3,2.21,2.21,0,0,0,1.77.92,2.4,2.4,0,0,0,1.2-.35l7.28-4.88a2.14,2.14,0,0,0-2.4-3.54Z"/>
    <path d="M266.85,227.52l-7.28,4.87a2.16,2.16,0,0,0-.57,3,2.21,2.21,0,0,0,1.77.92,1.86,1.86,0,0,0,1.2-.35l7.28-4.88a2.13,2.13,0,1,0-2.4-3.53Z"/>
    <path d="M41,176.34l-9.11,6.08a2.15,2.15,0,0,0-.57,3,2.19,2.19,0,0,0,1.77.92,2.14,2.14,0,0,0,1.2-.35l9.12-6.08A2.14,2.14,0,0,0,41,176.34Z"/>
    <path d="M41,269.08l-9.11,6.07a2.15,2.15,0,0,0-.57,3,2.19,2.19,0,0,0,1.77.92,2.92,2.92,0,0,0,1.2-.35l9.12-6.08A2.14,2.14,0,0,0,41,269.08Z"/>
    <path d="M131.16,237.61c-.31,1.21-.62,2.31-1,3.31l-2.5,6.69h7l-2.48-6.69Z"/>
    <path d="M147,10.1a2.4,2.4,0,0,0,1.14-.35l7.7-5.16a2.13,2.13,0,0,0-2.4-3.53l-7.64,5.15a2.15,2.15,0,0,0-.56,3A2.19,2.19,0,0,0,147,10.1Z"/>
    <path d="M275.54,54.77a2.14,2.14,0,0,0-3-.56l-17.1,11.45V31.31a10.18,10.18,0,0,0-10.18-10.18H137.22l-10.39,7a2.4,2.4,0,0,1-1.2.35,2.21,2.21,0,0,1-1.77-.92,2.15,2.15,0,0,1,.57-3l1.41-.92,13.64-8.76a2.1,2.1,0,1,0-2.26-3.54L122,21.2h-8.13l-10.39,7a2.37,2.37,0,0,1-1.2.35,2.19,2.19,0,0,1-1.76-.92,2.15,2.15,0,0,1,.56-3L124,9.25a2.13,2.13,0,1,0-2.4-3.53l-23,15.48H58.2A10.18,10.18,0,0,0,48,31.38v28L31.34,70.46a2.09,2.09,0,0,0-.57,3,2,2,0,0,0,1.77.92,2.58,2.58,0,0,0,1.2-.35l14.35-9.54,3.18-2.12a2.14,2.14,0,1,1,2.41,3.53l-5.52,3.67V76.9l-7,4.66a2.15,2.15,0,0,0-.56,3,2,2,0,0,0,1.77.92,2.34,2.34,0,0,0,1.2-.36l7.35-4.94A2.13,2.13,0,0,1,52.69,84l-4.46,3v65.66L25.05,168.07a2.15,2.15,0,0,0-.57,3,2,2,0,0,0,1.77.92,2.37,2.37,0,0,0,1.2-.35l25-16.75a2,2,0,0,1,2.62.77,2.16,2.16,0,0,1-.57,3l-6.36,4.24V275a10.09,10.09,0,0,0,9.83,10.11l-5.87,4a2.15,2.15,0,0,0-.57,3,2.06,2.06,0,0,0,1.77.92,2.38,2.38,0,0,0,1.2-.36l23-15.41a2.14,2.14,0,0,1,2.41,3.54l-6.58,4.45h52l-5.58,3.75a2.14,2.14,0,0,0-.56,3,2,2,0,0,0,1.76.91,2.37,2.37,0,0,0,1.2-.35l30.54-20.28a2.15,2.15,0,0,1,3,.56,2.1,2.1,0,0,1-.57,3l-14.21,9.54H217l-4.6,3a2.16,2.16,0,0,0-.63,3,2.11,2.11,0,0,0,1.76,1,2,2,0,0,0,1.13-.36L237,277.35a2.14,2.14,0,1,1,2.33,3.6l-6.78,4.38h13a10.18,10.18,0,0,0,10.18-10.18v-91.1l-4.38,3a2.43,2.43,0,0,1-1.2.35,2.19,2.19,0,0,1-1.77-.92,2.15,2.15,0,0,1,.57-3l24.38-16.33a2.13,2.13,0,1,0-2.4-3.53l-15.48,10.25V91.53l-4.38,3a2.34,2.34,0,0,1-1.21.36,2.22,2.22,0,0,1-1.76-.92,2.15,2.15,0,0,1,.56-3l6.72-4.52,13.71-9.19a2.14,2.14,0,0,0-2.4-3.54l-11.24,7.57V75.84l-4.38,3a2.34,2.34,0,0,1-1.21.36,2.22,2.22,0,0,1-1.76-.92,2.15,2.15,0,0,1,.56-3l6.72-4.52,19.43-13.08A2.05,2.05,0,0,0,275.54,54.77ZM98.23,255.56a9.06,9.06,0,0,1-5.8,1.66,14.28,14.28,0,0,1-6.07-1v-2.66a16,16,0,0,0,3.07.95,15.6,15.6,0,0,0,3.12.35,6.14,6.14,0,0,0,3.73-.95,3.11,3.11,0,0,0,1.26-2.62,3.24,3.24,0,0,0-.46-1.81,4.29,4.29,0,0,0-1.51-1.33,22.25,22.25,0,0,0-3.23-1.41A10.49,10.49,0,0,1,88,244.07a5.76,5.76,0,0,1-1.32-3.92,5,5,0,0,1,2-4.11,8,8,0,0,1,5.11-1.53,14.87,14.87,0,0,1,6.09,1.24l-.86,2.39A13.83,13.83,0,0,0,93.64,237a4.91,4.91,0,0,0-3.07.85,2.78,2.78,0,0,0-1.12,2.37,3.43,3.43,0,0,0,.44,1.8,3.93,3.93,0,0,0,1.39,1.31,17.6,17.6,0,0,0,3,1.34A16.55,16.55,0,0,1,98,246.4a5.39,5.39,0,0,1,1.78,2,5.6,5.6,0,0,1,.58,2.65A5.52,5.52,0,0,1,98.23,255.56Zm10.34-3.09a7,7,0,0,0,5.63,2.32,18.7,18.7,0,0,0,5.31-.88v2.42a13.38,13.38,0,0,1-2.71.7,20.31,20.31,0,0,1-3,.19q-4.87,0-7.52-3t-2.63-8.41a13.43,13.43,0,0,1,1.26-6,9.08,9.08,0,0,1,3.67-4,11.24,11.24,0,0,1,5.67-1.39,13.61,13.61,0,0,1,6.11,1.3l-1.12,2.36a12,12,0,0,0-5-1.21,7,7,0,0,0-5.6,2.39,9.7,9.7,0,0,0-2,6.52A9.89,9.89,0,0,0,108.57,252.47Zm29.61,4.45-2.66-6.85h-8.76l-2.63,6.85h-2.81L130,234.74h2.5l8.62,22.18Zm23.43,0h-3.24l-11.83-18.34h-.12l.07,1.22q.18,2.74.18,4.77v12.35H144.1V234.83h3.22l.68,1.07,7.25,11.21,3.86,6h.12c0-.24-.06-1.1-.12-2.59S159,248,159,247.29V234.83h2.59Zm36.1,0H195V243.34c0-1.52.07-3.43.21-5.76h-.12l-7.37,19.34H185.4l-7.29-19.37H178q.22,2.41.23,6v13.4h-2.57V234.83h4.11l6.81,18.1h.12l6.94-18.1h4.08Zm18.36-19.64H206.5v6.89h9v2.41h-9v7.89h9.57v2.45H203.72V234.83h12.35Zm21-21.21h-172a5.23,5.23,0,0,1-5.23-5.24V38.94a5.22,5.22,0,0,1,5.23-5.23H237a5.22,5.22,0,0,1,5.23,5.23V210.83h.07A5.22,5.22,0,0,1,237,216.07Z"/>
    <path d="M270.45,139.8l-7.28,4.88a2.15,2.15,0,0,0-.56,3,2.22,2.22,0,0,0,1.76.92,2.44,2.44,0,0,0,1.21-.36l7.28-4.87a2.14,2.14,0,0,0-2.41-3.54Z"/>
  </g>
</svg>
