<svg id="border-seventeen" data-name="Layer 1" xmlns="http://www.w3.org/2000/svg" width="300" height="300" viewBox="0 0 300 300">
  <g>
    <path d="M239.42,299.62H60.58a19.39,19.39,0,0,1-19.36-19.36V91.42l1,0a19.68,19.68,0,0,0,0-39.34l-1,0V20.94C41.22,10.06,50.27.52,60.58.52H239.42c10.31,0,19.36,9.54,19.36,20.42V52h-1.2a19.7,19.7,0,0,0,0,39.39h1.19V280.26A19.39,19.39,0,0,1,239.42,299.62ZM43.34,93.46v186.8A17.25,17.25,0,0,0,60.58,297.5H239.42a17.25,17.25,0,0,0,17.24-17.24V93.51a21.81,21.81,0,0,1,0-43.58v-29c0-9.75-8.06-18.3-17.24-18.3H60.58c-9.18,0-17.24,8.55-17.24,18.3V50a21.79,21.79,0,0,1,0,43.47Z"/>
    <g>
      <path d="M90.1,43.54a2.57,2.57,0,0,0-1-2.2,13.3,13.3,0,0,0-3.63-1.61,25.8,25.8,0,0,1-4.14-1.67Q77.15,35.81,77.15,32a5.85,5.85,0,0,1,1.12-3.53A7.19,7.19,0,0,1,81.48,26a12.06,12.06,0,0,1,4.69-.87,10.89,10.89,0,0,1,4.67.95A7.31,7.31,0,0,1,94,28.79a7,7,0,0,1,1.14,3.93h-5a3.31,3.31,0,0,0-1.06-2.62,4.37,4.37,0,0,0-3-.93,4.67,4.67,0,0,0-2.88.78,2.47,2.47,0,0,0-1,2.06,2.36,2.36,0,0,0,1.2,2,13.45,13.45,0,0,0,3.54,1.51,15.23,15.23,0,0,1,6.26,3.21,6.4,6.4,0,0,1,2,4.77,5.88,5.88,0,0,1-2.4,5,10.5,10.5,0,0,1-6.47,1.81,12.46,12.46,0,0,1-5.14-1,8,8,0,0,1-3.54-2.83,7.22,7.22,0,0,1-1.22-4.16h5.06q0,4.05,4.84,4.05a4.73,4.73,0,0,0,2.8-.73A2.37,2.37,0,0,0,90.1,43.54Z"/>
      <path d="M117.77,41.81A8.62,8.62,0,0,1,114.85,48a10.24,10.24,0,0,1-6.93,2.27,9.22,9.22,0,0,1-7.4-3.17Q97.84,44,97.83,38.43v-1.5a14.62,14.62,0,0,1,1.24-6.21,9.36,9.36,0,0,1,3.55-4.13,11.12,11.12,0,0,1,12.19.84,9.27,9.27,0,0,1,3,6.36h-5a5.05,5.05,0,0,0-1.32-3.43A4.87,4.87,0,0,0,108,29.29a4.26,4.26,0,0,0-3.77,1.81,10.2,10.2,0,0,0-1.29,5.6v1.85c0,2.64.41,4.57,1.21,5.79a4.19,4.19,0,0,0,3.78,1.83,5,5,0,0,0,3.49-1.06,4.81,4.81,0,0,0,1.32-3.3Z"/>
      <path d="M134.89,44.91h-8.84l-1.68,5H119l9.11-24.46h4.67L141.94,50h-5.36Zm-7.48-4.08h6.11l-3.07-9.15Z"/>
      <path d="M164.11,50h-5l-9.82-16.09V50h-5V25.49h5l9.83,16.13V25.49h5Z"/>
      <path d="M183.67,25.49,190,43.23l6.25-17.74h6.62V50h-5.06V43.27l.51-11.54L191.66,50H188.2l-6.58-18.21.5,11.53V50h-5V25.49Z"/>
      <path d="M221.93,39.35h-9.67V45.9h11.35V50H207.22V25.49h16.36v4.09H212.26v5.83h9.67Z"/>
    </g>
    <path d="M225.62,72.63h-5.29V70.51h5.29Zm-10.58,0h-5.29V70.51H215Zm-10.58,0h-5.29V70.51h5.29Zm-10.58,0h-5.29V70.51h5.29Zm-10.58,0H178V70.51h5.29Zm-10.58,0h-5.29V70.51h5.29Zm-10.58,0h-5.29V70.51h5.29Zm-10.58,0h-5.28V70.51h5.28Zm-10.57,0H135.7V70.51H141Zm-10.58,0h-5.29V70.51h5.29Zm-10.58,0h-5.29V70.51h5.29Zm-10.58,0H104V70.51h5.29Zm-10.58,0H93.38V70.51h5.29Zm-10.58,0H82.8V70.51h5.29Zm-10.58,0H72.22V70.51h5.29Z"/>
  </g>
</svg>
