<svg id="border-six" data-name="Layer 1" xmlns="http://www.w3.org/2000/svg" width="72" height="70" viewBox="0 -12 300 300">
  <g>
    <path d="M250.85,223.31H53.06a12,12,0,0,1-12-12V13.51a12,12,0,0,1,12-12H250.92a12,12,0,0,1,12,12V211.38A12.13,12.13,0,0,1,250.85,223.31ZM53.06,4a9.55,9.55,0,0,0-9.54,9.53V211.3a9.55,9.55,0,0,0,9.54,9.54H250.85a9.64,9.64,0,0,0,9.61-9.47V13.51A9.55,9.55,0,0,0,250.92,4Z"/>
    <g>
      <path d="M55.7,299.34c-9.59,0-15.09-5.86-15.09-16.1v-4.89h11.3v5.48c0,3.93,1.7,4.47,3.54,4.47s3.54-.54,3.54-4.47c0-5-3.5-8.21-7.54-11.92-5-4.54-10.59-9.68-10.59-19.36,0-10.39,5.3-16.11,14.92-16.11s14.93,5.72,14.93,16.11v3.12H59.41V252c0-4.2-1.74-4.56-3.37-4.56s-3.38.36-3.38,4.56c0,5,3.5,8.21,7.55,11.91,5,4.54,10.58,9.69,10.58,19.37C70.79,293.48,65.29,299.34,55.7,299.34ZM43.14,280.88v2.36c0,6.19,2.18,13.57,12.56,13.57s12.56-7.38,12.56-13.57c0-8.57-5-13.11-9.76-17.5-4.3-3.94-8.37-7.65-8.37-13.78,0-5.86,3.21-7.09,5.91-7.09s5.9,1.23,5.9,7.09v1.18h6.24v-.59c0-6.2-2.15-13.58-12.4-13.58s-12.39,7.38-12.39,13.58c0,8.56,5,13.11,9.76,17.5,4.31,3.93,8.37,7.65,8.37,13.78,0,5.78-3.3,7-6.07,7s-6.07-1.22-6.07-7v-2.95Z"/>
      <path d="M87.91,299.34c-9.59,0-15.09-5.86-15.09-16.1V252.55c0-10.24,5.5-16.11,15.09-16.11S103,242.31,103,252.55v7H91.71V252c0-4-1.8-4.56-3.55-4.56s-3.54.55-3.54,4.56v31.87c0,3.93,1.7,4.47,3.54,4.47s3.55-.54,3.55-4.47v-9.7H103v9.11C103,293.48,97.5,299.34,87.91,299.34Zm0-60.37c-10.38,0-12.56,7.38-12.56,13.58v30.69c0,6.19,2.18,13.57,12.56,13.57s12.56-7.38,12.56-13.57v-6.58H94.24v7.17c0,5.78-3.31,7-6.08,7s-6.07-1.22-6.07-7V252c0-6.17,3.81-7.09,6.07-7.09s6.08.92,6.08,7.09V257h6.23v-4.47C100.47,246.35,98.29,239,87.91,239Z"/>
      <path d="M138.89,298.67H127L125.35,288h-9.2l-1.6,10.71H103.46l9.85-61.55H129Zm-9.75-2.53h6.78l-9-56.49H115.47l-9,56.49h5.94l1.6-10.71h13.56ZM126.65,280H114.77l4.69-31.3H122Zm-8.94-2.53h6l-3-20Z"/>
      <path d="M172.32,298.67H160.55l-9.31-34.48v34.48H140.36V237.12h13.87l7.29,27v-27h10.8Zm-9.83-2.53h7.29V239.65h-5.73v34.06l-2.48.33-9.28-34.39h-9.4v56.49h5.82V254.66l2.48-.34Z"/>
      <path d="M230.92,298.67h-11.3V271.88l-4.06,26.79H204.63l-4.57-27.62v27.62H189.43V237.12h15.24l5.71,35,5.28-35h15.26Zm-8.77-2.53h6.24V239.65H217.84l-6.16,40.83h-2.5l-6.66-40.84H192v56.49h5.57V255.67l2.51-.21,6.74,40.68h6.61l6.24-41.25,2.52.19Z"/>
      <path d="M263,298.67H235.13V237.12H263v11h-16V262h12.73v11H246.94v14.76h16Zm-25.3-2.53h22.77v-5.9h-16V270.42h12.73v-5.9H244.41v-19h16v-5.9H237.66Z"/>
    </g>
  </g>
</svg>
